<?xml version="1.0" standalone="no"?>
<!DOCTYPE svg PUBLIC "-//W3C//DTD SVG 20010904//EN"
 "http://www.w3.org/TR/2001/REC-SVG-20010904/DTD/svg10.dtd">
<svg version="1.0" xmlns="http://www.w3.org/2000/svg"
 width="495.000000pt" height="495.000000pt" viewBox="0 0 495.000000 495.000000"
 preserveAspectRatio="xMidYMid meet">
<metadata>
Created by potrace 1.11, written by Peter Selinger 2001-2013
</metadata>
<g transform="translate(0.000000,495.000000) scale(0.100000,-0.100000)"
fill="#000000" stroke="none">
<path d="M1930 4916 c0 -49 31 -172 65 -255 19 -47 33 -87 31 -88 -2 -2 -20
11 -42 28 -70 56 -245 141 -260 127 -10 -10 16 -59 64 -120 65 -83 174 -239
170 -244 -2 -1 -20 1 -41 5 -43 10 -45 15 36 -114 109 -175 153 -255 207 -382
l56 -131 35 32 c51 47 83 57 168 55 l76 -2 22 83 c29 110 53 252 53 315 0 72
-24 144 -77 233 -50 86 -133 205 -138 200 -2 -2 7 -50 21 -107 13 -56 24 -110
24 -118 0 -8 -25 20 -56 63 -31 44 -75 102 -97 129 -52 64 -298 315 -309 315
-4 0 -8 -11 -8 -24z"/>
<path d="M1474 4368 c-5 -7 3 -20 18 -31 22 -17 41 -20 115 -18 48 1 103 -3
122 -9 19 -5 37 -7 40 -5 2 3 -3 21 -12 40 l-17 35 -129 0 c-90 0 -132 -4
-137 -12z"/>
<path d="M2925 4278 c-83 -30 -219 -158 -281 -264 -59 -100 -96 -240 -71 -266
8 -8 22 -28 31 -46 27 -52 92 -56 115 -6 33 72 20 193 -25 235 -29 27 -30 39
-4 90 20 38 21 39 48 25 90 -47 152 -175 152 -312 0 -42 -1 -44 -40 -54 -98
-25 -116 -31 -130 -40 -11 -7 -6 -8 17 -4 77 15 293 -159 293 -236 0 -42 -46
-191 -97 -318 -25 -62 -44 -115 -41 -117 6 -7 193 340 218 405 28 72 57 199
65 282 l6 66 -60 74 c-32 40 -84 98 -116 128 -31 30 -75 77 -96 104 -39 48
-39 49 -23 75 10 14 25 32 33 39 14 11 10 12 -22 7 -36 -6 -38 -5 -27 15 6 11
31 45 56 75 47 58 47 60 -1 43z m-227 -360 c15 -15 16 -55 2 -63 -18 -11 -40
15 -40 46 0 30 17 38 38 17z m-4 -198 c-12 -13 -24 -16 -33 -11 -11 7 -10 15
9 42 23 32 24 32 34 10 7 -17 5 -26 -10 -41z"/>
<path d="M1474 4105 c53 -38 52 -37 80 -26 15 6 6 13 -43 34 -84 36 -96 34
-37 -8z"/>
<path d="M1420 4040 c8 -5 20 -10 25 -10 6 0 3 5 -5 10 -8 5 -19 10 -25 10 -5
0 -3 -5 5 -10z"/>
<path d="M1468 4024 c-3 -3 7 -19 22 -35 15 -17 36 -47 47 -67 l20 -37 -69
-250 c-66 -238 -68 -252 -58 -301 14 -64 47 -118 166 -265 52 -65 94 -120 94
-123 0 -3 -8 -6 -17 -6 -10 0 -43 -14 -73 -30 -30 -16 -92 -47 -137 -69 -106
-51 -163 -90 -247 -170 -56 -55 -106 -122 -106 -145 0 -3 12 -12 28 -20 l27
-15 -70 -31 c-38 -18 -73 -37 -77 -44 -7 -11 -25 -86 -49 -211 l-11 -59 -30
33 c-16 18 -28 27 -27 19 2 -7 -1 -44 -5 -83 l-8 -70 -19 45 -18 45 0 -45 c-1
-98 57 -257 112 -307 29 -27 84 -50 143 -59 57 -8 55 -9 -106 -64 -154 -52
-214 -81 -263 -129 -67 -63 -82 -102 -82 -213 0 -115 17 -151 77 -156 48 -4
77 28 123 136 47 110 77 158 118 182 57 35 107 20 107 -33 0 -8 -34 -59 -76
-113 -100 -129 -145 -223 -151 -312 -4 -55 -1 -73 17 -100 40 -64 153 -84 209
-37 40 34 48 64 66 236 18 186 29 230 67 266 l30 28 19 -24 c23 -29 23 -28 -1
-126 -25 -100 -37 -244 -22 -271 6 -12 39 -35 72 -53 77 -41 114 -36 143 19
28 54 18 198 -22 317 -17 51 -31 99 -31 107 0 8 -23 54 -51 103 -41 70 -119
226 -119 238 0 1 33 18 73 38 93 46 164 110 280 255 240 297 361 539 342 686
-19 148 -100 332 -195 439 l-33 38 31 70 c17 38 56 108 86 154 l56 85 52 2
c29 1 -1 4 -67 8 l-120 5 -24 60 c-20 48 -25 79 -25 155 -1 87 2 101 31 163
18 37 38 67 46 67 24 0 80 -28 114 -58 l32 -28 -33 4 c-42 5 -80 -32 -95 -94
-31 -122 7 -234 80 -234 45 0 68 17 90 63 20 45 28 179 8 145 -5 -10 -16 -18
-24 -18 -16 0 -30 42 -22 64 12 32 51 10 129 -73 55 -58 78 -77 73 -61 -15 51
-60 116 -125 180 -88 86 -196 143 -322 170 -89 19 -189 26 -200 14z m462 -379
c0 -16 -31 -63 -45 -69 -27 -10 -52 -7 -64 7 -16 20 6 37 46 37 21 0 36 6 39
15 6 14 24 21 24 10z"/>
<path d="M780 3688 c-64 -31 -141 -112 -178 -187 l-32 -64 90 -97 c49 -54 96
-103 104 -109 11 -9 12 -21 4 -54 -5 -23 -8 -56 -6 -74 3 -27 1 -30 -13 -22
-24 12 -66 11 -90 -2 -33 -17 -69 -106 -69 -169 0 -100 0 -100 97 -100 103 0
215 -22 307 -61 l69 -29 34 21 c18 11 39 28 46 37 6 9 26 18 42 18 44 2 145
51 145 71 0 28 -69 223 -110 310 -80 172 -195 340 -318 466 -37 37 -69 67 -72
67 -3 0 -25 -10 -50 -22z"/>
<path d="M2576 3455 c-15 -24 -36 -51 -48 -59 -19 -14 -24 -13 -50 9 -16 14
-46 30 -67 36 -67 20 -119 5 -233 -68 -56 -36 -125 -76 -153 -88 l-50 -23 95
-94 c85 -84 242 -214 214 -178 -113 148 -123 171 -43 94 35 -34 85 -75 111
-93 45 -30 138 -75 143 -69 1 2 13 23 25 48 31 61 114 177 161 223 38 37 119
187 119 220 0 10 -8 17 -20 17 -11 0 -52 16 -90 35 -38 19 -74 35 -79 35 -5 0
-21 -20 -35 -45z"/>
<path d="M3111 2622 c78 -84 129 -147 129 -160 0 -23 -69 -159 -103 -204 l-37
-48 31 -16 c57 -29 112 -45 319 -90 422 -92 590 -162 730 -304 109 -110 132
-211 75 -325 -37 -73 -140 -181 -215 -223 -77 -44 -34 -40 51 4 123 65 201
152 249 279 17 46 22 81 22 150 0 216 -79 371 -264 519 -109 88 -176 121 -423
212 -241 88 -461 180 -554 231 l-65 35 55 -60z"/>
<path d="M3029 2262 c6 -12 16 -24 22 -28 8 -4 8 -1 0 14 -6 12 -16 24 -22 28
-8 4 -8 1 0 -14z"/>
<path d="M2035 1117 c4 -23 17 -53 29 -65 29 -33 94 -69 136 -77 l36 -6 16 68
c9 37 20 77 23 88 6 19 1 20 -87 20 -51 1 -108 4 -126 8 l-34 7 7 -43z"/>
<path d="M1585 826 c-11 -17 -21 -52 -23 -86 -7 -97 31 -117 163 -85 33 8 92
15 131 15 66 0 73 -2 108 -32 26 -24 43 -50 56 -93 l20 -60 -6 48 c-16 144
-72 187 -259 202 -147 11 -158 18 -167 95 l-3 25 -20 -29z"/>
<path d="M2659 704 c-59 -32 -196 -43 -277 -21 -61 16 -57 1 8 -28 l39 -18
-24 -29 c-14 -16 -25 -39 -25 -51 1 -22 1 -22 12 -2 6 11 22 32 36 48 22 23
31 26 61 21 53 -10 54 -12 15 -46 -42 -37 -64 -77 -63 -115 l0 -28 11 25 c6
14 18 39 26 57 17 38 81 73 134 73 47 0 141 -63 187 -124 36 -48 89 -76 144
-76 67 0 106 25 50 32 -16 2 -28 9 -29 18 0 8 -4 42 -8 75 -4 35 -3 71 3 86 8
23 6 30 -22 57 -49 45 -95 65 -167 68 -55 3 -72 0 -111 -22z"/>
<path d="M2316 664 c-4 -9 -4 -19 -1 -22 2 -3 7 3 11 12 4 9 4 19 1 22 -2 3
-7 -3 -11 -12z"/>
<path d="M2110 590 c-8 -5 -12 -11 -9 -15 8 -8 69 6 69 16 0 12 -41 11 -60 -1z"/>
<path d="M2242 538 c-15 -15 -16 -78 -1 -98 8 -12 9 -10 4 8 -9 32 20 62 60
62 23 0 42 -11 75 -42 l45 -43 -24 40 c-36 61 -67 85 -110 85 -20 0 -42 -5
-49 -12z"/>
<path d="M2100 495 c-19 -22 -10 -25 40 -14 64 15 73 29 18 29 -29 0 -50 -6
-58 -15z"/>
<path d="M2125 421 c-24 -10 -62 -51 -48 -51 6 0 16 7 23 15 8 10 31 15 68 15
37 0 53 3 46 10 -14 14 -66 21 -89 11z"/>
</g>
</svg>
